<?xml version="1.0" encoding="UTF-8" standalone="no"?>
<!-- Created with Inkscape (http://www.inkscape.org/) -->

<svg
   width="725.06348mm"
   height="239.31967mm"
   viewBox="0 0 725.06348 239.31967"
   version="1.1"
   id="svg5"
   xml:space="preserve"
   sodipodi:docname="collektar-logo.svg"
   inkscape:version="1.2.2 (732a01da63, 2022-12-09)"
   inkscape:export-filename="automatic-save-0-2025_10_17_19_09_44-8128-1.png"
   inkscape:export-xdpi="300"
   inkscape:export-ydpi="300"
   xmlns:inkscape="http://www.inkscape.org/namespaces/inkscape"
   xmlns:sodipodi="http://sodipodi.sourceforge.net/DTD/sodipodi-0.dtd"
   xmlns="http://www.w3.org/2000/svg"
   xmlns:svg="http://www.w3.org/2000/svg"><sodipodi:namedview
     id="namedview7"
     pagecolor="#505050"
     bordercolor="#ffffff"
     borderopacity="1"
     inkscape:showpageshadow="0"
     inkscape:pageopacity="0"
     inkscape:pagecheckerboard="1"
     inkscape:deskcolor="#505050"
     inkscape:document-units="mm"
     showgrid="false"
     showguides="true"
     inkscape:zoom="0.125"
     inkscape:cx="-540"
     inkscape:cy="1676"
     inkscape:window-width="2560"
     inkscape:window-height="1351"
     inkscape:window-x="-9"
     inkscape:window-y="1341"
     inkscape:window-maximized="1"
     inkscape:current-layer="layer1"><sodipodi:guide
       position="119.65739,119.65997"
       orientation="0.70710678,0.70710678"
       id="guide11412"
       inkscape:locked="false"
       inkscape:label=""
       inkscape:color="rgb(0,134,229)" /><sodipodi:guide
       position="109.65735,129.66001"
       orientation="0.92387953,0.38268343"
       id="guide13300"
       inkscape:label=""
       inkscape:locked="false"
       inkscape:color="rgb(0,134,229)" /><sodipodi:guide
       position="-0.34260688,119.65997"
       orientation="0,-1"
       id="guide15117"
       inkscape:locked="false" /><sodipodi:guide
       position="109.65735,129.66001"
       orientation="0.38268343,0.92387953"
       id="guide16210"
       inkscape:label=""
       inkscape:locked="false"
       inkscape:color="rgb(0,134,229)" /><sodipodi:guide
       position="119.65739,239.65998"
       orientation="1,0"
       id="guide18837"
       inkscape:locked="false" /><sodipodi:guide
       position="114.65732,239.45304"
       orientation="1,0"
       id="guide1564"
       inkscape:locked="false" /><sodipodi:guide
       position="13.330179,129.66001"
       orientation="0,-1"
       id="guide2022"
       inkscape:locked="false" /><sodipodi:guide
       position="124.65723,239.45304"
       orientation="1,0"
       id="guide446"
       inkscape:locked="false" /><sodipodi:guide
       position="214.97059,192.50293"
       orientation="-1,0"
       id="guide448"
       inkscape:locked="false" /><sodipodi:guide
       position="34.902122,204.41318"
       inkscape:color="rgb(167,0,255)"
       inkscape:label=""
       orientation="-0.70710678,0.70710678"
       id="guide565"
       inkscape:locked="false" /><sodipodi:guide
       position="124.65739,239.45298"
       inkscape:color="rgb(167,0,255)"
       inkscape:label="Anfang"
       orientation="1,0"
       id="guide567"
       inkscape:locked="false" /><sodipodi:guide
       position="214.9704,192.50298"
       inkscape:color="rgb(167,0,255)"
       inkscape:label=""
       orientation="1,0"
       id="guide571"
       inkscape:locked="false" /><sodipodi:guide
       position="119.65739,119.65997"
       inkscape:color="rgb(167,0,255)"
       inkscape:label=""
       orientation="-0.70710678,0.70710678"
       id="guide573"
       inkscape:locked="false" /><sodipodi:guide
       position="169.81381,215.97803"
       inkscape:color="rgb(167,0,255)"
       inkscape:label="Schnittpunkt 1"
       orientation="0.887268,-0.461254"
       id="guide575"
       inkscape:locked="false" /><sodipodi:guide
       position="87.881034,87.883618"
       orientation="1,0"
       id="guide1627"
       inkscape:locked="false" /><sodipodi:guide
       position="61.392358,61.39494"
       orientation="1,0"
       id="guide1684"
       inkscape:locked="false" /><sodipodi:guide
       position="154.2474,77.126979"
       inkscape:color="rgb(167,0,255)"
       inkscape:label="Maßstab"
       orientation="0.57356,0.819163"
       id="guide1461"
       inkscape:locked="false" /><sodipodi:guide
       position="154.2474,77.126979"
       inkscape:color="rgb(167,0,255)"
       inkscape:label=""
       orientation="-0,1"
       id="guide1465"
       inkscape:locked="false" /><sodipodi:guide
       position="154.2474,77.126979"
       inkscape:color="rgb(167,0,255)"
       inkscape:label="Anfang"
       orientation="1,0"
       id="guide1467"
       inkscape:locked="false" /><sodipodi:guide
       position="200.2124,44.94318"
       inkscape:color="rgb(167,0,255)"
       inkscape:label="Ende"
       orientation="-0,1"
       id="guide1469"
       inkscape:locked="false" /><sodipodi:guide
       position="200.2124,44.94318"
       inkscape:color="rgb(167,0,255)"
       inkscape:label=""
       orientation="1,0"
       id="guide1471"
       inkscape:locked="false" /><sodipodi:guide
       position="154.2474,77.126979"
       inkscape:color="rgb(167,0,255)"
       inkscape:label=""
       orientation="-0.977717,-0.209928"
       id="guide1473"
       inkscape:locked="false" /><sodipodi:guide
       position="154.2474,77.126979"
       inkscape:color="rgb(167,0,255)"
       inkscape:label="Schnittpunkt 1"
       orientation="-0.977717,-0.209928"
       id="guide1475"
       inkscape:locked="false" /><sodipodi:guide
       position="160.91684,66.35414"
       orientation="0.57356028,0.81916336"
       id="guide1899"
       inkscape:label="Maßstab"
       inkscape:locked="false"
       inkscape:color="rgb(167,0,255)" /><sodipodi:guide
       position="114.65732,-0.13337071"
       orientation="0,-1"
       id="guide2808"
       inkscape:locked="false" /></sodipodi:namedview><defs
     id="defs2"><inkscape:path-effect
       effect="fillet_chamfer"
       id="path-effect1126"
       is_visible="true"
       lpeversion="1"
       nodesatellites_param="F,0,0,1,0,2.6458333,0,1 @ F,0,0,1,0,2.6458333,0,1 @ F,0,0,1,0,2.6458333,0,1 @ F,0,0,1,0,2.6458333,0,1"
       unit="px"
       method="auto"
       mode="F"
       radius="10"
       chamfer_steps="1"
       flexible="false"
       use_knot_distance="true"
       apply_no_radius="true"
       apply_with_radius="true"
       only_selected="false"
       hide_knots="false" /><inkscape:path-effect
       effect="fillet_chamfer"
       id="path-effect1124"
       is_visible="true"
       lpeversion="1"
       nodesatellites_param="F,0,0,1,0,2.6458333,0,1 @ F,0,0,1,0,2.6458333,0,1 @ F,0,0,1,0,2.6458333,0,1"
       unit="px"
       method="auto"
       mode="F"
       radius="10"
       chamfer_steps="1"
       flexible="false"
       use_knot_distance="true"
       apply_no_radius="true"
       apply_with_radius="true"
       only_selected="false"
       hide_knots="false" /><inkscape:path-effect
       effect="fillet_chamfer"
       id="path-effect986"
       is_visible="true"
       lpeversion="1"
       nodesatellites_param="F,0,0,1,0,2.6458333,0,1 @ F,0,0,1,0,2.6458333,0,1 @ F,0,0,1,0,2.6458333,0,1 @ F,0,0,1,0,2.6458333,0,1"
       unit="px"
       method="auto"
       mode="F"
       radius="10"
       chamfer_steps="1"
       flexible="false"
       use_knot_distance="true"
       apply_no_radius="true"
       apply_with_radius="true"
       only_selected="false"
       hide_knots="false" /><inkscape:path-effect
       effect="fillet_chamfer"
       id="path-effect984"
       is_visible="true"
       lpeversion="1"
       nodesatellites_param="F,0,0,1,0,2.6458333,0,1 @ F,0,0,1,0,2.6458333,0,1 @ F,0,0,1,0,2.6458333,0,1 @ F,0,0,1,0,2.6458333,0,1 | F,0,0,1,0,2.6458333,0,1 @ F,0,0,1,0,2.6458333,0,1 @ F,0,0,1,0,2.6458333,0,1 @ F,0,0,1,0,2.6458333,0,1"
       unit="px"
       method="auto"
       mode="F"
       radius="10"
       chamfer_steps="1"
       flexible="false"
       use_knot_distance="true"
       apply_no_radius="true"
       apply_with_radius="true"
       only_selected="false"
       hide_knots="false" /><inkscape:path-effect
       effect="fillet_chamfer"
       id="path-effect982"
       is_visible="true"
       lpeversion="1"
       nodesatellites_param="F,0,0,1,0,2.6458333,0,1 @ F,0,0,1,0,2.6458333,0,1 @ F,0,0,1,0,2.6458333,0,1 @ F,0,0,1,0,2.6458333,0,1"
       unit="px"
       method="auto"
       mode="F"
       radius="10"
       chamfer_steps="1"
       flexible="false"
       use_knot_distance="true"
       apply_no_radius="true"
       apply_with_radius="true"
       only_selected="false"
       hide_knots="false" /><inkscape:path-effect
       effect="fillet_chamfer"
       id="path-effect978"
       is_visible="true"
       lpeversion="1"
       nodesatellites_param="F,0,0,1,0,2.6458333,0,1 @ F,0,0,1,0,2.6458333,0,1 @ F,0,0,1,0,2.6458333,0,1 @ F,0,0,1,0,2.6458333,0,1 | F,0,0,1,0,2.6458333,0,1 @ F,0,0,1,0,2.6458333,0,1 @ F,0,0,1,0,2.6458333,0,1 @ F,0,0,1,0,2.6458333,0,1 | F,0,0,1,0,2.6458333,0,1 @ F,0,0,1,0,2.6458333,0,1 @ F,0,0,1,0,2.6458333,0,1 @ F,0,0,1,0,2.6458333,0,1 | F,0,0,1,0,2.6458333,0,1 @ F,0,0,1,0,2.6458333,0,1 @ F,0,0,1,0,2.6458333,0,1 @ F,0,0,1,0,2.6458333,0,1"
       unit="px"
       method="auto"
       mode="F"
       radius="10"
       chamfer_steps="1"
       flexible="false"
       use_knot_distance="true"
       apply_no_radius="true"
       apply_with_radius="true"
       only_selected="false"
       hide_knots="false" /><inkscape:path-effect
       effect="fillet_chamfer"
       id="path-effect976"
       is_visible="true"
       lpeversion="1"
       nodesatellites_param="F,0,0,1,0,2.6458333,0,1 @ F,0,0,1,0,2.6458333,0,1 @ F,0,0,1,0,2.6458333,0,1 @ F,0,0,1,0,2.6458333,0,1"
       unit="px"
       method="auto"
       mode="F"
       radius="10"
       chamfer_steps="1"
       flexible="false"
       use_knot_distance="true"
       apply_no_radius="true"
       apply_with_radius="true"
       only_selected="false"
       hide_knots="false" /></defs><g
     inkscape:label="Ebene 1"
     inkscape:groupmode="layer"
     id="layer1"
     style="display:inline"
     transform="translate(-30.342607,-30.340306)"><path
       style="display:inline;opacity:1;fill:#ffb53c;fill-opacity:1;stroke-width:0.264999;stroke-linecap:square;stroke-linejoin:bevel;paint-order:markers stroke fill"
       d="m 181.88113,181.62507 c -6.57474,6.63992 -15.0567,11.06945 -24.26277,12.67073 -1.43943,0.25038 -2.61852,1.56114 -2.61852,3.02239 v 69.82933 c 0,1.46125 1.18386,2.59981 2.64214,2.50718 33.69226,-2.14009 64.93252,-18.38077 86.03986,-44.72898 0.91358,-1.14042 0.661,-2.76244 -0.53599,-3.60057 L 185.8538,181.20894 c -1.19699,-0.83813 -2.94466,-0.62207 -3.97267,0.41613 z"
       id="path477"
       inkscape:label="yellow"
       inkscape:path-effect="#path-effect986"
       inkscape:original-d="m 183.68646,179.69136 a 45,45 0 0 1 -28.68662,14.981 v 75.12099 a 120,120 0 0 0 90.31335,-46.95062 z" /><path
       id="path366"
       style="display:inline;opacity:1;fill:#000000;fill-opacity:1;stroke-width:0.264999;stroke-linecap:square;stroke-linejoin:bevel;paint-order:markers stroke fill"
       inkscape:label="horizontal stripe"
       d="m 182.49922,194.15427 c -4.56125,3.36498 -9.60493,5.99626 -14.97396,7.81386 -1.38396,0.46852 -2.52551,1.97255 -2.52551,3.4338 v 5.22243 c 0,1.46125 1.15511,2.38057 2.56278,1.98886 8.78963,-2.44588 16.81756,-6.68514 23.67035,-12.30183 1.13007,-0.92623 1.04131,-2.39778 -0.15568,-3.23592 l -4.32009,-3.02494 c -1.19699,-0.83814 -3.08212,-0.76367 -4.25789,0.10374 z m 37.99019,26.70162 c -14.13774,14.06531 -32.44532,23.94287 -52.87912,27.5902 -1.43847,0.25676 -2.61054,1.61477 -2.61054,3.07602 v 4.62298 c 0,1.46125 1.17419,2.48774 2.61659,2.25397 23.25176,-3.76845 44.67034,-14.90042 61.11444,-31.76562 1.02009,-1.04622 0.85377,-2.59584 -0.34323,-3.43395 l -3.87975,-2.7165 c -1.197,-0.83811 -2.9825,-0.65767 -4.01839,0.3729 z"
       inkscape:path-effect="#path-effect984"
       inkscape:original-d="m 184.58977,192.53295 c -5.77714,4.70694 -12.42507,8.17468 -19.59002,10.22315 v 10.51409 c 10.68317,-2.50706 20.33385,-7.63662 28.24479,-14.67714 z m 37.75066,26.4325 c -14.95732,15.68184 -34.94489,26.52564 -57.34068,29.91083 v 9.91464 c 25.1338,-3.45586 48.28563,-15.48856 65.55517,-34.07389 z" /><path
       style="display:inline;opacity:1;fill:#107be8;fill-opacity:1;stroke-width:0.264999;stroke-linecap:square;stroke-linejoin:bevel;paint-order:markers stroke fill"
       d="m 30.348014,157.64186 c 3.86766,60.154 51.855913,108.14247 112.009896,112.01041 1.45822,0.0938 2.64202,-1.0435 2.64202,-2.50475 v -69.82933 c 0,-1.46125 -1.17921,-2.77067 -2.61904,-3.01878 -18.7403,-3.2294 -33.45113,-17.94023 -36.68052,-36.68054 -0.24811,-1.43982 -1.55753,-2.61903 -3.01878,-2.61903 l -69.828815,0 c -1.461253,0 -2.598518,1.1838 -2.504761,2.64202 z"
       id="path475"
       inkscape:label="blue"
       inkscape:path-effect="#path-effect982"
       inkscape:original-d="M 30.206942,154.99984 A 120,120 0 0 0 144.99993,269.79335 v -75.12099 a 45,45 0 0 1 -39.67251,-39.67252 z" /><path
       style="display:inline;opacity:1;fill:#65db5c;fill-opacity:1;stroke-width:0.264999;stroke-linecap:square;stroke-linejoin:bevel;paint-order:markers stroke fill"
       d="m 154.99984,32.852775 v 69.791095 c 0,1.46125 1.17936,2.76938 2.61935,3.01653 9.23125,1.58439 17.74079,6.01185 24.33635,12.66203 1.02884,1.03737 2.77725,1.25281 3.97424,0.41468 l 57.21606,-40.06249 c 1.19699,-0.838132 1.44957,-2.460139 0.53599,-3.600551 -21.10743,-26.348025 -52.34767,-42.588512 -86.03984,-44.728488 -1.45829,-0.09262 -2.64215,1.045941 -2.64215,2.507194 z"
       id="path473"
       inkscape:label="green"
       inkscape:path-effect="#path-effect1126"
       inkscape:original-d="M 154.99984,30.206942 V 105.2897 a 45,45 0 0 1 28.76259,14.96498 L 245.31319,77.157048 A 120,120 0 0 0 154.99984,30.206942 Z" /><path
       style="display:inline;opacity:1;fill:#ff5015;fill-opacity:1;stroke-width:0.264999;stroke-linecap:square;stroke-linejoin:bevel;paint-order:markers stroke fill"
       d="M 142.35791,30.348026 C 82.204116,34.215936 34.215936,82.204116 30.348026,142.35791 c -0.09376,1.45822 1.043496,2.64202 2.504749,2.64202 h 69.828815 c 1.46125,0 2.77067,-1.17921 3.01878,-2.61904 3.22939,-18.7403 17.94023,-33.45113 36.68053,-36.68052 1.43982,-0.24811 2.61903,-1.55753 2.61903,-3.01878 V 32.852775 c 0,-1.461253 -1.1838,-2.598513 -2.64202,-2.504749 z"
       id="path425"
       inkscape:label="red"
       inkscape:path-effect="#path-effect976"
       inkscape:original-d="M 144.99993,30.206942 A 120,120 0 0 0 30.206942,144.99993 h 75.120478 a 45,45 0 0 1 39.67251,-39.67251 z" /><path
       d="m 112.90164,205.38368 v 5.77343 q 0,1.2028 -0.84196,2.04477 -0.84196,0.84195 -2.04475,0.84195 H 97.505817 v 12.5091 q 0,1.2028 -0.841964,2.04476 -0.841952,0.84196 -2.044751,0.84196 h -5.77343 q -1.202799,0 -2.044751,-0.84196 -0.841964,-0.84196 -0.841964,-2.04476 v -12.5091 H 73.449852 q -1.202788,0 -2.044751,-0.84195 -0.841964,-0.84197 -0.841964,-2.04477 v -5.77343 q 0,-1.20279 0.841964,-2.04475 0.841963,-0.84196 2.044751,-0.84196 h 12.509105 v -12.50909 q 0,-1.20281 0.841964,-2.04477 0.841952,-0.84196 2.044751,-0.84196 h 5.77343 q 1.202799,0 2.044762,0.84196 0.841953,0.84196 0.841953,2.04477 v 12.5091 h 12.509113 q 1.20278,0 2.04475,0.84196 0.84196,0.84196 0.84196,2.04474 z"
       id="path311"
       style="display:inline;opacity:1;stroke-width:0.03007" /><path
       id="path1952"
       style="display:inline;opacity:1;fill:#000000;fill-opacity:1;stroke-width:0.264999;stroke-linecap:square;stroke-linejoin:bevel;paint-order:markers stroke fill"
       d="m 132.38365,41.533927 c -7.75401,1.261564 -15.23479,3.335893 -22.3554,6.128079 -1.36037,0.533438 -1.99804,2.089902 -1.43885,3.439929 l 3.13179,7.561006 c 0.55919,1.350027 2.10294,1.98095 3.46476,1.451267 5.51,-2.143117 11.26408,-3.791505 17.20635,-4.894383 1.43668,-0.266644 2.60773,-1.631521 2.60773,-3.092774 v -8.340577 c 0,-1.461253 -1.17412,-2.487199 -2.61638,-2.252547 z M 96.211172,54.22318 c -6.5344,3.683539 -12.654074,8.015615 -18.273318,12.908199 -1.102033,0.959522 -1.136908,2.598681 -0.103645,3.631944 l 5.80338,5.80338 c 1.033263,1.033263 2.748091,1.074413 3.859228,0.125464 4.327892,-3.696168 8.985183,-7.016728 13.921003,-9.911166 1.26046,-0.739156 1.84709,-2.401374 1.2879,-3.7514 L 99.543951,55.396246 C 98.984764,54.04622 97.484072,53.505627 96.211172,54.22318 Z M 67.131378,77.937854 c -4.892583,5.619244 -9.224659,11.738918 -12.908198,18.273318 -0.717554,1.2729 -0.17696,2.773592 1.173066,3.332779 l 7.633355,3.161769 c 1.350026,0.55919 3.012244,-0.0274 3.7514,-1.2879 2.894438,-4.935822 6.214992,-9.593116 9.911164,-13.921005 0.948949,-1.111136 0.907801,-2.825963 -0.125462,-3.859226 l -5.80338,-5.80338 C 69.73006,76.800946 68.090901,76.835821 67.131378,77.937854 Z M 47.662006,110.02825 c -2.792186,7.12061 -4.866515,14.60139 -6.128079,22.35541 -0.234652,1.44225 0.791294,2.61637 2.252547,2.61637 h 8.340577 c 1.461253,0 2.82613,-1.17105 3.092774,-2.60773 1.102878,-5.94227 2.751266,-11.69635 4.894383,-17.20635 0.529683,-1.36182 -0.10124,-2.90557 -1.451267,-3.46476 l -7.561006,-3.13179 c -1.350027,-0.55919 -2.906491,0.0785 -3.439929,1.43885 z"
       inkscape:path-effect="#path-effect978"
       inkscape:original-d="m 135.00003,41.140641 c -9.59163,1.323524 -18.78628,3.88765 -27.42313,7.516854 l 5.15679,12.449886 c 7.03925,-2.965175 14.50182,-5.113432 22.26634,-6.334497 z M 98.531453,52.951807 C 90.336745,57.31437 82.760107,62.683303 75.963322,68.892436 l 9.545154,9.545154 C 91.038487,73.448444 97.146437,69.089494 103.71822,65.47404 Z M 68.892436,75.963322 C 62.683303,82.760107 57.31437,90.336745 52.951807,98.531453 L 65.47404,103.71822 C 69.089496,97.146435 73.448436,91.03848 78.43759,85.508476 Z M 48.657495,107.5769 c -3.629204,8.63685 -6.19333,17.8315 -7.516854,27.42313 h 13.632243 c 1.221065,-7.76452 3.369321,-15.22709 6.334497,-22.26634 z" /><text
       xml:space="preserve"
       style="font-style:normal;font-variant:normal;font-weight:normal;font-stretch:normal;font-size:108.827px;font-family:Poppins;-inkscape-font-specification:Poppins;fill:#ffffff;fill-opacity:1;stroke-width:0.5677;stroke-linecap:square;stroke-linejoin:bevel;paint-order:markers stroke fill"
       x="242.17815"
       y="189.83069"
       id="text3034"><tspan
         sodipodi:role="line"
         id="tspan3032"
         style="font-style:normal;font-variant:normal;font-weight:bold;font-stretch:normal;font-size:108.827px;font-family:Poppins;-inkscape-font-specification:'Poppins Bold';fill:#ffffff;fill-opacity:1;stroke-width:0.567702"
         x="242.17815"
         y="189.83069">Collektar</tspan></text><path
       sodipodi:type="star"
       style="opacity:1;fill:#000000;fill-opacity:1;stroke-width:0.264999;stroke-linecap:square;stroke-linejoin:bevel;paint-order:markers stroke fill"
       id="path1122"
       inkscape:flatsided="true"
       sodipodi:sides="3"
       sodipodi:cx="171.74741"
       sodipodi:cy="46.678623"
       sodipodi:r1="16.845657"
       sodipodi:r2="8.6996231"
       sodipodi:arg1="3.4603723e-05"
       sodipodi:arg2="1.0472322"
       inkscape:rounded="0"
       inkscape:randomized="0"
       d="m 186.30166,48.002043 -20.68618,11.942219 a 1.5275726,1.5275726 30.001983 0 1 -2.29132,-1.322996 l 8.3e-4,-23.885868 a 1.5275726,1.5275726 150.00198 0 1 2.29141,-1.322838 l 20.68535,11.94365 a 1.5275726,1.5275726 90.001983 0 1 -9e-5,2.645833 z"
       inkscape:transform-center-x="-5.5126647"
       transform="matrix(1.2673331,0,0,1.2673331,-28.172573,14.310464)"
       inkscape:transform-center-y="2.2711486e-06"
       inkscape:path-effect="#path-effect1124" /></g></svg>
