<?xml version="1.0" encoding="UTF-8" standalone="no"?>
<!DOCTYPE svg PUBLIC "-//W3C//DTD SVG 1.1//EN" "http://www.w3.org/Graphics/SVG/1.1/DTD/svg11.dtd">
<svg width="100%" height="100%" viewBox="0 0 2056 679" version="1.1" xmlns="http://www.w3.org/2000/svg" xmlns:xlink="http://www.w3.org/1999/xlink" xml:space="preserve" xmlns:serif="http://www.serif.com/" style="fill-rule:evenodd;clip-rule:evenodd;stroke-linejoin:round;stroke-miterlimit:2;">
    <g id="Ebene-1" serif:id="Ebene 1" transform="matrix(2.834646,0,0,2.834646,-86.01054,-86.004017)">
        <path id="yellow" d="M181.881,181.625C175.306,188.265 166.824,192.695 157.618,194.296C156.179,194.546 155,195.857 155,197.318L155,267.148C155,268.609 156.184,269.747 157.642,269.655C191.334,267.515 222.575,251.274 243.682,224.926C244.595,223.785 244.343,222.163 243.146,221.325L185.854,181.209C184.657,180.371 182.909,180.587 181.881,181.625Z" style="fill:rgb(255,181,60);fill-rule:nonzero;"/>
        <path id="horizontal-stripe" serif:id="horizontal stripe" d="M182.499,194.154C177.938,197.519 172.894,200.151 167.525,201.968C166.141,202.437 165,203.941 165,205.402L165,210.624C165,212.086 166.155,213.005 167.563,212.613C176.352,210.167 184.38,205.928 191.233,200.311C192.363,199.385 192.274,197.914 191.077,197.075L186.757,194.051C185.56,193.212 183.675,193.287 182.499,194.154ZM220.489,220.856C206.352,234.921 188.044,244.799 167.61,248.446C166.172,248.703 165,250.061 165,251.522L165,256.145C165,257.606 166.174,258.633 167.616,258.399C190.868,254.631 212.287,243.499 228.731,226.633C229.751,225.587 229.585,224.038 228.388,223.199L224.508,220.483C223.311,219.645 221.525,219.825 220.489,220.856Z" style="fill-rule:nonzero;"/>
        <path id="blue" d="M30.348,157.642C34.216,217.796 82.204,265.784 142.358,269.652C143.816,269.746 145,268.609 145,267.148L145,197.318C145,195.857 143.821,194.548 142.381,194.299C123.641,191.07 108.93,176.359 105.7,157.619C105.452,156.179 104.143,155 102.682,155L32.853,155C31.392,155 30.254,156.184 30.348,157.642Z" style="fill:rgb(16,123,232);fill-rule:nonzero;"/>
        <path id="green" d="M155,32.853L155,102.644C155,104.105 156.179,105.413 157.619,105.66C166.85,107.245 175.36,111.672 181.956,118.322C182.984,119.36 184.733,119.575 185.93,118.737L243.146,78.675C244.343,77.836 244.595,76.214 243.682,75.074C222.574,48.726 191.334,32.486 157.642,30.346C156.184,30.253 155,31.392 155,32.853Z" style="fill:rgb(101,219,92);fill-rule:nonzero;"/>
        <path id="red" d="M142.358,30.348C82.204,34.216 34.216,82.204 30.348,142.358C30.254,143.816 31.392,145 32.853,145L102.682,145C104.143,145 105.452,143.821 105.7,142.381C108.93,123.641 123.641,108.93 142.381,105.7C143.821,105.452 145,104.143 145,102.682L145,32.853C145,31.392 143.816,30.254 142.358,30.348Z" style="fill:rgb(255,80,21);fill-rule:nonzero;"/>
        <path id="path311" d="M112.902,205.384L112.902,211.157C112.902,211.959 112.621,212.641 112.06,213.202C111.498,213.763 110.817,214.044 110.015,214.044L97.506,214.044L97.506,226.553C97.506,227.355 97.225,228.036 96.664,228.598C96.103,229.159 95.421,229.44 94.619,229.44L88.846,229.44C88.044,229.44 87.362,229.159 86.801,228.598C86.24,228.036 85.959,227.355 85.959,226.553L85.959,214.044L73.45,214.044C72.648,214.044 71.966,213.763 71.405,213.202C70.844,212.641 70.563,211.959 70.563,211.157L70.563,205.384C70.563,204.582 70.844,203.9 71.405,203.339C71.966,202.778 72.648,202.497 73.45,202.497L85.959,202.497L85.959,189.988C85.959,189.186 86.24,188.504 86.801,187.943C87.362,187.382 88.044,187.101 88.846,187.101L94.619,187.101C95.421,187.101 96.103,187.382 96.664,187.943C97.225,188.504 97.506,189.186 97.506,189.988L97.506,202.497L110.015,202.497C110.817,202.497 111.498,202.778 112.06,203.339C112.621,203.9 112.902,204.582 112.902,205.384Z" style="fill-rule:nonzero;"/>
        <path id="path1952" d="M132.384,41.534C124.63,42.795 117.149,44.87 110.028,47.662C108.668,48.195 108.03,49.752 108.589,51.102L111.721,58.663C112.28,60.013 113.824,60.644 115.186,60.114C120.696,57.971 126.45,56.323 132.392,55.22C133.829,54.953 135,53.588 135,52.127L135,43.786C135,42.325 133.826,41.299 132.384,41.534ZM96.211,54.223C89.677,57.907 83.557,62.239 77.938,67.131C76.836,68.091 76.801,69.73 77.834,70.763L83.638,76.567C84.671,77.6 86.386,77.641 87.497,76.692C91.825,72.996 96.482,69.675 101.418,66.781C102.678,66.042 103.265,64.38 102.706,63.03L99.544,55.396C98.985,54.046 97.484,53.506 96.211,54.223ZM67.131,77.938C62.239,83.557 57.907,89.677 54.223,96.211C53.506,97.484 54.046,98.985 55.396,99.544L63.03,102.706C64.38,103.265 66.042,102.678 66.781,101.418C69.675,96.482 72.996,91.825 76.692,87.497C77.641,86.386 77.6,84.671 76.567,83.638L70.763,77.834C69.73,76.801 68.091,76.836 67.131,77.938ZM47.662,110.028C44.87,117.149 42.795,124.63 41.534,132.384C41.299,133.826 42.325,135 43.786,135L52.127,135C53.588,135 54.953,133.829 55.22,132.392C56.323,126.45 57.971,120.696 60.114,115.186C60.644,113.824 60.013,112.28 58.663,111.721L51.102,108.589C49.752,108.03 48.195,108.668 47.662,110.028Z" style="fill-rule:nonzero;"/>
        <g id="text3034">
            <path id="path382" d="M245.769,151.524C245.769,143.978 247.402,137.267 250.667,131.391C253.931,125.441 258.466,120.834 264.27,117.57C270.147,114.232 276.785,112.564 284.185,112.564C293.254,112.564 301.017,114.958 307.474,119.746C313.931,124.534 318.248,131.064 320.425,139.335L299.965,139.335C298.442,136.143 296.265,133.712 293.436,132.044C290.679,130.375 287.523,129.541 283.968,129.541C278.236,129.541 273.593,131.536 270.038,135.526C266.483,139.516 264.705,144.849 264.705,151.524C264.705,158.198 266.483,163.531 270.038,167.521C273.593,171.511 278.236,173.507 283.968,173.507C287.523,173.507 290.679,172.672 293.436,171.004C296.265,169.335 298.442,166.904 299.965,163.712L320.425,163.712C318.248,171.983 313.931,178.513 307.474,183.301C301.017,188.017 293.254,190.375 284.185,190.375C276.785,190.375 270.147,188.742 264.27,185.478C258.466,182.14 253.931,177.533 250.667,171.657C247.402,165.78 245.769,159.069 245.769,151.524Z" style="fill:white;fill-rule:nonzero;"/>
            <path id="path384" d="M359.494,190.701C353.544,190.701 348.176,189.432 343.387,186.892C338.671,184.353 334.935,180.725 332.178,176.01C329.494,171.294 328.151,165.78 328.151,159.468C328.151,153.229 329.53,147.751 332.287,143.035C335.044,138.247 338.816,134.583 343.605,132.044C348.393,129.504 353.762,128.235 359.711,128.235C365.66,128.235 371.029,129.504 375.818,132.044C380.606,134.583 384.379,138.247 387.136,143.035C389.893,147.751 391.271,153.229 391.271,159.468C391.271,165.707 389.856,171.221 387.027,176.01C384.27,180.725 380.461,184.353 375.6,186.892C370.812,189.432 365.443,190.701 359.494,190.701ZM359.494,174.595C363.049,174.595 366.059,173.289 368.526,170.677C371.065,168.065 372.335,164.329 372.335,159.468C372.335,154.607 371.102,150.871 368.635,148.259C366.241,145.647 363.266,144.341 359.711,144.341C356.084,144.341 353.073,145.647 350.679,148.259C348.284,150.798 347.087,154.534 347.087,159.468C347.087,164.329 348.248,168.065 350.57,170.677C352.964,173.289 355.939,174.595 359.494,174.595Z" style="fill:white;fill-rule:nonzero;"/>
            <rect id="path386" x="401.174" y="109.299" width="18.609" height="80.532" style="fill:white;fill-rule:nonzero;"/>
            <rect id="path388" x="433.278" y="109.299" width="18.609" height="80.532" style="fill:white;fill-rule:nonzero;"/>
            <path id="path390" d="M522.625,158.489C522.625,160.23 522.516,162.044 522.299,163.93L480.183,163.93C480.473,167.703 481.67,170.605 483.774,172.636C485.95,174.595 488.599,175.574 491.718,175.574C496.362,175.574 499.59,173.615 501.404,169.698L521.21,169.698C520.195,173.688 518.345,177.279 515.66,180.472C513.048,183.664 509.747,186.167 505.757,187.981C501.767,189.794 497.305,190.701 492.371,190.701C486.422,190.701 481.126,189.432 476.483,186.892C471.839,184.353 468.212,180.725 465.6,176.01C462.988,171.294 461.682,165.78 461.682,159.468C461.682,153.156 462.952,147.642 465.491,142.926C468.103,138.21 471.73,134.583 476.374,132.044C481.017,129.504 486.349,128.235 492.371,128.235C498.248,128.235 503.472,129.468 508.042,131.935C512.613,134.401 516.168,137.92 518.707,142.491C521.319,147.062 522.625,152.394 522.625,158.489ZM503.58,153.591C503.58,150.399 502.492,147.86 500.316,145.973C498.139,144.087 495.418,143.144 492.154,143.144C489.034,143.144 486.386,144.051 484.209,145.865C482.105,147.678 480.799,150.254 480.291,153.591L503.58,153.591Z" style="fill:white;fill-rule:nonzero;"/>
            <path id="path392" d="M569.53,189.831L551.029,164.365L551.029,189.831L532.419,189.831L532.419,109.299L551.029,109.299L551.029,153.809L569.421,129.105L592.383,129.105L567.135,159.577L592.601,189.831L569.53,189.831Z" style="fill:white;fill-rule:nonzero;"/>
            <path id="path394" d="M633.52,174.051L633.52,189.831L624.052,189.831C617.305,189.831 612.045,188.198 608.272,184.933C604.499,181.596 602.613,176.191 602.613,168.718L602.613,144.559L595.213,144.559L595.213,129.105L602.613,129.105L602.613,114.305L621.222,114.305L621.222,129.105L633.411,129.105L633.411,144.559L621.222,144.559L621.222,168.936C621.222,170.75 621.658,172.056 622.528,172.854C623.399,173.652 624.85,174.051 626.881,174.051L633.52,174.051Z" style="fill:white;fill-rule:nonzero;"/>
            <path id="path396" d="M640.158,159.359C640.158,153.12 641.319,147.642 643.641,142.926C646.035,138.21 649.263,134.583 653.326,132.044C657.389,129.504 661.924,128.235 666.93,128.235C671.21,128.235 674.947,129.105 678.139,130.846C681.404,132.588 683.907,134.873 685.648,137.703L685.648,129.105L704.257,129.105L704.257,189.831L685.648,189.831L685.648,181.233C683.834,184.063 681.295,186.348 678.03,188.089C674.838,189.831 671.101,190.701 666.821,190.701C661.887,190.701 657.389,189.432 653.326,186.892C649.263,184.281 646.035,180.617 643.641,175.901C641.319,171.112 640.158,165.599 640.158,159.359ZM685.648,159.468C685.648,154.825 684.342,151.161 681.73,148.476C679.191,145.792 676.071,144.45 672.371,144.45C668.671,144.45 665.515,145.792 662.903,148.476C660.364,151.088 659.094,154.716 659.094,159.359C659.094,164.002 660.364,167.703 662.903,170.459C665.515,173.144 668.671,174.486 672.371,174.486C676.071,174.486 679.191,173.144 681.73,170.459C684.342,167.775 685.648,164.111 685.648,159.468Z" style="fill:white;fill-rule:nonzero;"/>
            <path id="path398" d="M736.361,139.226C738.538,135.889 741.259,133.277 744.523,131.391C747.788,129.432 751.416,128.452 755.406,128.452L755.406,148.15L750.291,148.15C745.648,148.15 742.166,149.166 739.844,151.197C737.522,153.156 736.361,156.638 736.361,161.644L736.361,189.831L717.752,189.831L717.752,129.105L736.361,129.105L736.361,139.226Z" style="fill:white;fill-rule:nonzero;"/>
        </g>
        <g id="path1122" transform="matrix(1.267333,0,0,1.267333,-28.172573,14.310464)">
            <path d="M186.302,48.002L165.615,59.944C165.143,60.217 164.56,60.217 164.088,59.944C163.616,59.672 163.324,59.166 163.324,58.621L163.325,34.735C163.325,34.19 163.617,33.685 164.089,33.413C164.561,33.14 165.144,33.14 165.616,33.413L186.302,45.356C186.774,45.629 187.066,46.134 187.065,46.679C187.065,47.224 186.774,47.73 186.302,48.002Z" style="fill-rule:nonzero;"/>
        </g>
    </g>
</svg>
